<svg xmlns="http://www.w3.org/2000/svg" class="svg-logo" width="2400" height="2400" viewBox="0 0 630 430" style="height: auto;"><rect width="630" height="630" y="-100" rx="0" ry="0" fill="#000000" fill-opacity="1"></rect><g data-element="wrapper" transform="translate(-14.883753204348778 -28.809996795656588) scale(1.0500000000000098)"><g ><g data-element="icon" transform="scale(0.1416548649765609) translate(831.657604684867 1217.6926317024975)"><path id="color_x5F_2_1_" d="M393.541,372.754c63.243-63.243,116.719-126.811,155.885-183.11v235.072    c0,22.958-18.611,41.569-41.57,41.569H291.589C324.864,438.457,359.249,407.046,393.541,372.754z M362.365,487.069h-96.253    c-12.967,10.307-25.706,20.009-38.147,29.075l-2.987,8.961c-3.988,11.963,4.917,24.318,17.527,24.318h115.011    c12.611,0,21.515-12.354,17.527-24.318L362.365,487.069z" fill="#ffffff" fill-opacity="1"></path> <path id="color_x5F_1_4_" d="M378.09,367.386c26.009-26.245,50.319-52.508,72.599-78.25    C551.359,172.824,610.616,67.212,598.419,22.383c-1.452-5.337-3.895-9.832-7.424-13.361    c-29.898-29.899-127.74,16.579-242.073,108.542h29.81c74.233-51.864,134.806-74.333,156.43-52.708    c11.007,11.007,10.576,32.114,0.676,59.965c-1.733,4.874-3.741,9.945-6.044,15.216c-6.373-3.973-13.874-6.307-21.938-6.307H92.164    c-22.957,0-41.569,18.611-41.569,41.569v249.416c0,22.958,18.612,41.569,41.569,41.569h151.434    c-7.554,5.665-14.997,11.057-22.308,16.166c-48.736,34.049-91.575,55.422-121.378,59.971c-8.159,1.245-15.333,1.222-21.39-0.14    c-5.52-1.241-10.121-3.581-13.662-7.123c-11.006-11.007-10.575-32.114-0.675-59.965c-8.831-4.914-16.248-12.072-21.466-20.705    C3.299,520.231-11.046,570.921,9.026,590.992c7.98,7.98,20.815,10.502,37.498,8.189c67.302-9.333,197.448-97.643,326.233-226.428    C374.546,370.965,376.317,369.175,378.09,367.386z" fill="#666666" fill-opacity="1"></path></g><path d="M233.30 217.91C233.30 210.49 233.30 204.28 233.49 198.13L240.08 198.13C247.70 198.13 251.15 201.59 251.15 207.67C251.15 213.56 247.12 217.91 239.63 217.91ZM256.14 239.29L252.69 227.96C251.09 222.90 248.98 220.53 245.01 219.64C252.69 218.23 256.72 213.37 256.72 207.73C256.72 199.93 250.64 195.51 240.21 195.51L221.14 195.51L221.14 197.75L227.79 198.45C227.98 204.60 227.98 210.87 227.98 217.08L227.98 220.60C227.98 226.87 227.98 233.08 227.79 239.16L221.14 239.86L221.14 242.17L240.14 242.17L240.14 239.86L233.49 239.16C233.30 233.14 233.30 227.06 233.30 220.47L237.58 220.47C243.47 220.47 245.71 221.69 247.18 227.25L250.38 238.77C251.15 241.65 252.82 242.81 256.98 242.81C259.09 242.81 260.75 242.49 261.90 242.17L261.90 239.86ZM283.79 198.13C292.43 198.13 296.14 202.10 296.14 209.21C296.14 215.99 292.56 220.73 283.15 220.73L278.54 220.73L278.54 217.08C278.54 210.61 278.54 204.28 278.74 198.13ZM282.58 223.29C296.34 223.29 301.78 217.08 301.78 209.21C301.78 200.95 296.14 195.51 284.82 195.51L266.38 195.51L266.38 197.75L273.04 198.45C273.23 204.60 273.23 210.87 273.23 217.08L273.23 220.60C273.23 226.87 273.23 233.08 273.04 239.16L266.38 239.86L266.38 242.17L285.58 242.17L285.58 239.86L278.74 239.16C278.54 233.78 278.54 228.60 278.54 223.29ZM315.98 209.08L315.09 208.44L305.87 211.83L305.87 213.88L311.57 214.33C311.70 217.33 311.82 219.96 311.82 224.05L311.82 227.57C311.82 230.84 311.76 235.77 311.63 239.35L306.38 240.12L306.38 242.17L322.70 242.17L322.70 240.12L316.82 239.29C316.75 235.70 316.69 230.84 316.69 227.57L316.69 221.75C318.29 217.33 320.34 214.39 323.34 212.41L324.24 213.17C325.52 214.26 326.74 215.03 328.34 215.03C330.83 215.03 331.92 213.43 331.92 210.68C331.22 209.27 329.10 208.37 327.06 208.37C323.02 208.37 318.93 211.83 316.62 217.46ZM350.54 243.06C358.42 243.06 366.22 237.43 366.22 225.85C366.22 214.20 358.29 208.37 350.54 208.37C342.61 208.37 334.80 214.20 334.80 225.85C334.80 237.43 342.61 243.06 350.54 243.06ZM350.54 240.50C344.08 240.50 340.24 235.45 340.24 225.85C340.24 216.31 344.08 210.93 350.54 210.93C356.94 210.93 360.85 216.31 360.85 225.85C360.85 235.45 356.94 240.50 350.54 240.50ZM371.79 211.77L371.79 213.88L377.49 214.26C377.62 217.27 377.68 219.96 377.68 224.05L377.68 235.45C377.68 245.69 377.36 251.64 375.95 254.52C375.50 255.54 374.93 256.25 374.29 256.69L372.69 255.61C370.96 254.33 369.55 253.81 367.95 253.81C366.10 253.81 364.82 254.65 364.24 256.31C364.43 257.85 366.10 259.64 370.06 259.64C373.78 259.64 376.14 258.23 378.45 255.67C381.84 251.83 382.35 246.90 382.35 234.61L382.35 218.17L382.54 209.08L381.65 208.44ZM379.98 191.93C377.68 191.93 375.89 193.46 375.89 195.83C375.89 198.13 377.68 199.73 379.98 199.73C382.22 199.73 384.02 198.13 384.02 195.83C384.02 193.46 382.22 191.93 379.98 191.93ZM397.33 222.90C398.10 214.77 402.77 210.93 407.44 210.93C412.37 210.93 415.76 214.97 415.76 219.45C415.76 221.49 415.12 222.90 412.30 222.90ZM420.11 225.40C420.43 224.44 420.56 223.09 420.56 221.43C420.56 213.43 415.18 208.37 407.76 208.37C399.31 208.37 392.08 215.22 392.08 225.91C392.08 236.85 398.54 243.06 407.50 243.06C413.46 243.06 417.87 240.12 420.50 235.51L419.15 234.49C416.66 237.49 413.65 239.48 409.10 239.48C402.32 239.48 397.33 234.81 397.26 225.33ZM453.90 234.23C451.60 237.62 447.95 239.48 443.92 239.48C437.01 239.48 432.14 234.23 432.14 225.27C432.14 216.25 436.75 210.93 443.22 210.93C444.56 210.93 446.03 211.19 447.57 211.70L448.98 216.50C449.42 218.10 450.32 219.25 452.24 219.25C453.78 219.25 454.80 218.49 455.06 216.89C453.84 211.83 448.91 208.37 443.02 208.37C434.70 208.37 427.09 214.84 427.09 225.72C427.09 236.34 433.23 243.06 442.58 243.06C448.85 243.06 453.07 239.99 455.25 234.87ZM478.67 238.26C476.88 239.54 475.47 240.12 473.81 240.12C471.18 240.12 469.65 238.52 469.65 234.74L469.65 212.21L479.31 212.21L479.31 209.27L469.71 209.27L470.10 199.61L466.58 199.61L465.04 209.08L458.51 209.85L458.51 212.21L464.78 212.21L464.78 229.43C464.78 231.93 464.72 233.40 464.72 235.00C464.72 240.44 467.41 243.06 472.27 243.06C475.54 243.06 478.16 241.91 479.95 239.86ZM495.70 222.65C490.96 220.85 489.17 219.51 489.17 216.25C489.17 213.11 491.54 210.93 496.21 210.93C498.06 210.93 499.86 211.38 501.58 212.34L502.74 218.04L505.55 218.04L505.81 211.13C502.74 209.33 499.92 208.37 496.21 208.37C488.66 208.37 484.50 212.73 484.50 217.72C484.50 222.45 487.82 225.14 492.94 227.00L496.14 228.21C500.82 229.94 502.80 231.54 502.80 234.68C502.80 238.13 500.11 240.50 494.42 240.50C492.05 240.50 490.13 240.05 488.40 239.29L486.99 233.08L483.92 233.08L484.18 240.57C487.57 242.17 490.58 243.06 494.42 243.06C503.12 243.06 507.54 238.45 507.54 233.40C507.54 229.11 504.98 226.04 498.19 223.54Z" data-element="company-name" data-text-path="" data-text="RProjects" data-font-family="JP Noto Serif" fill="#ffffff" fill-opacity="1"></path><path d="M235.43 275.75L235.43 289.43L232.75 289.43L232.75 275.70Q232.75 272.73 234.66 270.86Q236.58 268.99 239.40 268.99L239.40 268.99Q242.51 268.99 244.08 270.55Q245.65 272.12 245.65 274.40L245.65 274.40Q245.65 277.31 242.94 278.58L242.94 278.58L242.94 278.69Q246.66 279.76 246.66 283.85L246.66 283.85Q246.66 289.43 240.06 289.43L240.06 289.43L236.46 289.43L236.46 286.90L240.03 286.90Q242.02 286.90 242.94 286.09Q243.86 285.29 243.86 283.50L243.86 283.50Q243.86 281.95 242.87 281.11Q241.88 280.27 240.18 280.27L240.18 280.27L237.33 280.27L237.33 277.88L239.17 277.88Q240.72 277.88 241.83 277.03Q242.94 276.19 242.94 274.75L242.94 274.75Q242.94 273.36 242.09 272.44Q241.24 271.52 239.34 271.52L239.34 271.52Q237.61 271.52 236.52 272.60Q235.43 273.68 235.43 275.75L235.43 275.75ZM261.14 275.61L261.14 289.43L256.16 289.43Q252.96 289.43 251.58 288.48L251.58 288.48Q250.34 287.65 250.01 286.48Q249.68 285.31 249.68 283.41L249.68 283.41L249.68 275.61L252.22 275.61L252.22 283.39Q252.22 283.90 252.24 284.26Q252.27 284.62 252.45 285.19Q252.62 285.75 252.94 286.11Q253.25 286.47 253.86 286.74Q254.46 287.01 255.33 287.01L255.33 287.01L258.61 287.01L258.61 275.61L261.14 275.61ZM268.49 275.61L268.49 289.43L265.95 289.43L265.95 278.03L263.59 278.03L264.74 275.61L268.49 275.61ZM265.84 272.73L265.84 272.73Q265.46 272.24 265.46 271.66Q265.46 271.09 265.84 270.61Q266.21 270.14 266.99 270.14Q267.77 270.14 268.14 270.61Q268.52 271.09 268.52 271.66Q268.52 272.24 268.14 272.71Q267.77 273.19 266.99 273.19Q266.21 273.19 265.84 272.73ZM272.35 283.96L272.35 283.96L272.35 269.27L274.94 269.27L274.94 283.96Q274.94 285.00 275.18 285.65Q275.43 286.29 275.95 286.57Q276.47 286.84 276.96 286.93Q277.44 287.01 278.25 287.01L278.25 287.01L278.25 289.43Q275.03 289.43 273.69 288.19Q272.35 286.96 272.35 283.96ZM290.92 287.01L290.92 269.27L293.52 269.27L293.52 289.43L286.75 289.43Q283.61 289.43 281.65 287.43Q279.69 285.43 279.69 282.38L279.69 282.38Q279.69 279.38 281.72 277.35Q283.75 275.32 286.55 275.32L286.55 275.32Q288.33 275.32 289.89 276.19L289.89 276.19L289.89 278.78Q288.45 277.74 286.55 277.74L286.55 277.74Q284.82 277.74 283.62 279.02Q282.43 280.30 282.43 282.38L282.43 282.38Q282.43 284.48 283.56 285.75Q284.70 287.01 286.75 287.01L286.75 287.01L290.92 287.01ZM304.80 278.03L302.24 278.03L307.40 272.87L307.40 275.61L311.28 275.61L311.28 278.03L307.40 278.03L307.40 283.96Q307.40 284.97 307.73 285.63Q308.06 286.29 308.69 286.57Q309.33 286.84 309.89 286.93Q310.45 287.01 311.28 287.01L311.28 287.01L311.28 289.43Q307.97 289.43 306.39 288.17Q304.80 286.90 304.80 283.96L304.80 283.96L304.80 278.03ZM314.02 269.27L316.56 269.27L316.56 275.61L319.00 275.61Q322.20 275.61 323.58 276.56L323.58 276.56Q324.82 277.39 325.15 278.56Q325.48 279.73 325.48 281.63L325.48 281.63L325.48 289.43L322.95 289.43L322.95 281.66Q322.95 281.14 322.92 280.78Q322.89 280.42 322.72 279.86Q322.55 279.30 322.23 278.94Q321.91 278.58 321.31 278.30Q320.70 278.03 319.84 278.03L319.84 278.03L316.56 278.03L316.56 289.43L314.02 289.43L314.02 269.27ZM335.71 275.32L335.71 275.32Q340.60 275.52 340.60 279.38L340.60 279.38Q340.60 284.19 334.30 284.19L334.30 284.19L333.12 284.19L333.12 281.97L334.50 281.97Q336.43 281.97 337.18 281.38Q337.92 280.79 337.92 279.41L337.92 279.41Q337.92 278.52 337.26 278.07Q336.60 277.63 335.56 277.63L335.56 277.63Q333.52 277.63 332.35 279.07Q331.19 280.51 331.19 282.52L331.19 282.52Q331.19 284.65 332.44 285.98Q333.69 287.30 335.71 287.30L335.71 287.30Q337.52 287.30 338.67 286.41L338.67 286.41L340.40 288.11Q338.41 289.72 335.71 289.72L335.71 289.72Q332.42 289.72 330.47 287.79Q328.51 285.86 328.51 282.81L328.51 282.81Q328.51 279.41 330.44 277.31Q332.37 275.21 335.71 275.32ZM350.19 282.52L350.19 269.27L352.79 269.27L352.79 282.52Q352.79 284.80 353.95 286.05Q355.12 287.30 357.16 287.30L357.16 287.30Q359.29 287.30 360.50 286.08Q361.71 284.85 361.71 282.52L361.71 282.52Q361.71 280.30 360.40 279.02Q359.09 277.74 356.96 277.74L356.96 277.74Q355.15 277.74 353.82 278.78L353.82 278.78L353.82 276.19Q355.41 275.32 357.25 275.32L357.25 275.32Q360.30 275.32 362.30 277.29Q364.31 279.27 364.31 282.52L364.31 282.52Q364.31 285.95 362.22 287.83Q360.13 289.72 356.96 289.72L356.96 289.72Q353.94 289.72 352.07 287.76Q350.19 285.80 350.19 282.52L350.19 282.52ZM374.10 275.32L374.10 275.32Q378.99 275.52 378.99 279.38L378.99 279.38Q378.99 284.19 372.69 284.19L372.69 284.19L371.51 284.19L371.51 281.97L372.89 281.97Q374.82 281.97 375.57 281.38Q376.32 280.79 376.32 279.41L376.32 279.41Q376.32 278.52 375.65 278.07Q374.99 277.63 373.95 277.63L373.95 277.63Q371.91 277.63 370.74 279.07Q369.58 280.51 369.58 282.52L369.58 282.52Q369.58 284.65 370.83 285.98Q372.08 287.30 374.10 287.30L374.10 287.30Q375.91 287.30 377.06 286.41L377.06 286.41L378.79 288.11Q376.80 289.72 374.10 289.72L374.10 289.72Q370.81 289.72 368.86 287.79Q366.90 285.86 366.90 282.81L366.90 282.81Q366.90 279.41 368.83 277.31Q370.76 275.21 374.10 275.32ZM386.37 275.61L391.46 275.61L391.46 278.03L386.37 278.03Q385.53 278.03 384.93 278.35Q384.32 278.66 384.32 279.24L384.32 279.24Q384.32 279.58 384.47 279.86Q384.61 280.13 384.80 280.30Q384.98 280.48 385.37 280.66Q385.76 280.85 385.98 280.92Q386.19 280.99 387.81 281.51Q389.42 282.03 390.20 282.38Q390.97 282.72 391.39 283.31Q391.81 283.90 391.92 284.47Q392.04 285.03 392.04 285.57L392.04 285.57Q392.04 289.43 386.74 289.43L386.74 289.43L381.76 289.43L381.76 287.01L386.74 287.01Q389.45 287.01 389.45 285.57L389.45 285.57Q389.45 284.88 388.66 284.42Q387.86 283.96 386.73 283.64Q385.59 283.33 384.45 282.91Q383.31 282.49 382.52 281.56Q381.73 280.62 381.73 279.24L381.73 279.24Q381.73 277.48 383.08 276.55Q384.44 275.61 386.37 275.61L386.37 275.61ZM396.04 278.03L393.48 278.03L398.64 272.87L398.64 275.61L402.52 275.61L402.52 278.03L398.64 278.03L398.64 283.96Q398.64 284.97 398.97 285.63Q399.30 286.29 399.93 286.57Q400.56 286.84 401.13 286.93Q401.69 287.01 402.52 287.01L402.52 287.01L402.52 289.43Q399.21 289.43 397.63 288.17Q396.04 286.90 396.04 283.96L396.04 283.96L396.04 278.03ZM424.09 289.72L424.09 289.72Q421.96 288.08 421.24 286.41Q420.52 284.74 420.18 281.48L420.18 281.48L419.89 281.48Q419.54 284.74 418.82 286.41Q418.10 288.08 415.97 289.72L415.97 289.72Q413.99 288.74 412.82 286.18Q411.65 283.62 411.45 279.84L411.45 279.84L411.25 275.61L413.81 275.61L414.04 279.73Q414.30 284.45 415.92 286.58L415.92 286.58Q416.35 286.09 416.72 285.49Q417.10 284.88 417.36 284.15Q417.61 283.41 417.80 282.85Q417.99 282.29 418.15 281.41Q418.31 280.53 418.36 280.13Q418.42 279.73 418.52 278.83Q418.62 277.94 418.65 277.83L418.65 277.83L421.42 277.83Q421.44 277.94 421.55 278.83Q421.65 279.73 421.70 280.13Q421.76 280.53 421.92 281.41Q422.08 282.29 422.27 282.85Q422.45 283.41 422.71 284.15Q422.97 284.88 423.35 285.49Q423.72 286.09 424.15 286.58L424.15 286.58Q425.76 284.45 426.02 279.73L426.02 279.73L426.25 275.61L428.82 275.61L428.62 279.84Q428.41 283.62 427.25 286.18Q426.08 288.74 424.09 289.72ZM435.30 275.61L435.30 289.43L432.76 289.43L432.76 278.03L430.40 278.03L431.55 275.61L435.30 275.61ZM432.65 272.73L432.65 272.73Q432.27 272.24 432.27 271.66Q432.27 271.09 432.65 270.61Q433.02 270.14 433.80 270.14Q434.58 270.14 434.95 270.61Q435.33 271.09 435.33 271.66Q435.33 272.24 434.95 272.71Q434.58 273.19 433.80 273.19Q433.02 273.19 432.65 272.73ZM440.28 278.03L437.72 278.03L442.87 272.87L442.87 275.61L446.76 275.61L446.76 278.03L442.87 278.03L442.87 283.96Q442.87 284.97 443.20 285.63Q443.53 286.29 444.17 286.57Q444.80 286.84 445.36 286.93Q445.92 287.01 446.76 287.01L446.76 287.01L446.76 289.43Q443.45 289.43 441.86 288.17Q440.28 286.90 440.28 283.96L440.28 283.96L440.28 278.03ZM449.50 269.27L452.03 269.27L452.03 275.61L454.48 275.61Q457.68 275.61 459.06 276.56L459.06 276.56Q460.30 277.39 460.63 278.56Q460.96 279.73 460.96 281.63L460.96 281.63L460.96 289.43L458.42 289.43L458.42 281.66Q458.42 281.14 458.40 280.78Q458.37 280.42 458.19 279.86Q458.02 279.30 457.70 278.94Q457.39 278.58 456.78 278.30Q456.18 278.03 455.31 278.03L455.31 278.03L452.03 278.03L452.03 289.43L449.50 289.43L449.50 269.27ZM482.59 275.61L482.59 289.43L477.60 289.43Q474.41 289.43 473.03 288.48L473.03 288.48Q471.79 287.65 471.46 286.48Q471.12 285.31 471.12 283.41L471.12 283.41L471.12 275.61L473.66 275.61L473.66 283.39Q473.66 283.90 473.69 284.26Q473.72 284.62 473.89 285.19Q474.06 285.75 474.38 286.11Q474.70 286.47 475.30 286.74Q475.91 287.01 476.77 287.01L476.77 287.01L480.05 287.01L480.05 275.61L482.59 275.61ZM490.68 275.61L495.78 275.61L495.78 278.03L490.68 278.03Q489.84 278.03 489.24 278.35Q488.64 278.66 488.64 279.24L488.64 279.24Q488.64 279.58 488.78 279.86Q488.92 280.13 489.11 280.30Q489.30 280.48 489.69 280.66Q490.08 280.85 490.29 280.92Q490.51 280.99 492.12 281.51Q493.73 282.03 494.51 282.38Q495.29 282.72 495.71 283.31Q496.12 283.90 496.24 284.47Q496.35 285.03 496.35 285.57L496.35 285.57Q496.35 289.43 491.05 289.43L491.05 289.43L486.07 289.43L486.07 287.01L491.05 287.01Q493.76 287.01 493.76 285.57L493.76 285.57Q493.76 284.88 492.97 284.42Q492.18 283.96 491.04 283.64Q489.90 283.33 488.76 282.91Q487.63 282.49 486.84 281.56Q486.04 280.62 486.04 279.24L486.04 279.24Q486.04 277.48 487.40 276.55Q488.75 275.61 490.68 275.61L490.68 275.61Z" data-element="slogan" data-text-path="" data-text="Build the best with us" data-font-family="Baumans" fill="#ffffff" fill-opacity="1"></path></g></g></svg>