<svg xmlns="http://www.w3.org/2000/svg" class="svg-logo" width="2400" height="2400" viewBox="0 0 630 430" style="height: auto;"><rect data-darkreader-inline-fill="" width="630" height="630" y="-100" rx="0" ry="0" fill="transparent" fill-opacity="0" style="--darkreader-inline-fill: #202325;"></rect><g data-element="wrapper" transform="translate(-29.176263427737467 -39.44738388061751) scale(1.1000000000000099)"><g ><g data-element="icon" transform="scale(0.13333333333333333) translate(3146.187515258789 1312.437515258789)"><path id="color_x5F_2_6_" d="M355.972,86.482c-12.403-9.097-24.903-17.615-37.433-25.503    c21.695-11.991,43.293-21.922,64.404-29.507c33.483-12.029,64.197-17.587,91.149-16.805c-7.983,11.584-12.984,25.372-13.916,40.27    c-18.966,1.116-40.455,5.826-63.709,14.18C383.166,73.895,369.628,79.719,355.972,86.482z M203.533,530.883    c-23.254,8.354-44.743,13.064-63.709,14.18c-0.932,14.897-5.933,28.685-13.916,40.269c1.656,0.048,3.313,0.094,4.997,0.094    c25.727,0,54.729-5.61,86.152-16.899c21.112-7.584,42.709-17.515,64.404-29.506c-12.53-7.888-25.03-16.407-37.433-25.503    C230.372,520.281,216.834,526.105,203.533,530.883z M600,60c0,7.012-1.221,13.741-3.441,20.001    c-2.955,8.329-7.696,15.816-13.766,21.999c6.167,32.105,1.484,71.216-14.264,115.055c-24.937,69.416-75.1,144.074-141.248,210.222    l-0.001,0.001c-23.523,23.522-48.124,45.01-73.18,64.074c-12.409-6.562-24.905-13.929-37.399-22.037    c28.106-20.24,55.868-43.894,82.295-70.321l0.001-0.001c62.065-62.065,108.903-131.481,131.887-195.461    c11.456-31.887,16.062-60.458,13.929-83.743c-1.589,0.127-3.191,0.21-4.812,0.21c-4.928,0-9.715-0.61-14.301-1.736    C499.499,111.831,480,88.155,480,60c0-33.084,26.916-60,60-60S600,26.916,600,60z M540,80c11.029,0,20-8.972,20-20s-8.971-20-20-20    s-20,8.972-20,20S528.971,80,540,80z M0,540c0-7.012,1.221-13.741,3.441-20.001c2.955-8.329,7.696-15.816,13.766-21.999    c-6.168-32.105-1.484-71.216,14.264-115.055c24.937-69.416,75.1-144.074,141.248-210.222l0.001-0.001    c23.523-23.523,48.124-45.01,73.18-64.074c12.409,6.562,24.905,13.929,37.399,22.037c-28.106,20.24-55.868,43.894-82.295,70.321    l-0.001,0.001C138.938,263.07,92.101,332.486,69.117,396.467c-11.456,31.887-16.062,60.458-13.929,83.743    C56.777,480.083,58.378,480,60,480c4.928,0,9.715,0.61,14.301,1.736C100.501,488.168,120,511.845,120,540c0,33.084-26.916,60-60,60    S0,573.084,0,540z M60,520c-11.029,0-20,8.972-20,20s8.971,20,20,20s20-8.972,20-20S71.029,520,60,520z" data-darkreader-inline-fill="" fill="#666666" fill-opacity="1" style="--darkreader-inline-fill: #0f2c4a;"></path> <path id="color_x5F_1_14_" d="M86.481,244.028c-9.096,12.403-17.615,24.904-25.504,37.434    c-11.991-21.695-21.922-43.293-29.506-64.406c-12.028-33.481-17.585-64.195-16.803-91.148c11.584,7.983,25.372,12.984,40.269,13.916    c1.117,18.966,5.826,40.456,14.18,63.709C73.895,216.834,79.719,230.372,86.481,244.028z M530.883,396.467    c8.354,23.253,13.064,44.743,14.18,63.709c14.897,0.931,28.685,5.933,40.268,13.916c0.782-26.953-4.776-57.667-16.803-91.148    c-7.585-21.112-17.515-42.71-29.506-64.406c-7.888,12.53-16.407,25.03-25.503,37.434    C520.281,369.628,526.105,383.166,530.883,396.467z M60,0c7.012,0,13.741,1.22,20.001,3.441c8.329,2.954,15.816,7.696,22,13.766    c32.105-6.168,71.215-1.484,115.056,14.266c69.414,24.937,144.073,75.099,210.222,141.248l0.001,0.001    c23.522,23.522,45.01,48.123,64.073,73.179c-6.561,12.409-13.929,24.905-22.037,37.399c-20.24-28.105-43.894-55.867-70.321-82.294    l-0.001-0.001C336.931,138.94,267.513,92.102,203.533,69.117c-31.888-11.455-60.458-16.061-83.743-13.928    c0.126,1.589,0.21,3.19,0.21,4.812c0,4.929-0.61,9.715-1.736,14.302C111.831,100.501,88.155,120,60,120C26.916,120,0,93.084,0,60    S26.916,0,60,0z M80,60c0-11.028-8.971-20-20-20s-20,8.972-20,20s8.971,20,20,20S80,71.028,80,60z M540,600    c-7.021,0-13.759-1.223-20.026-3.449c-8.327-2.958-15.811-7.702-21.992-13.774c-9.091,1.746-18.725,2.65-28.887,2.65    c-25.729,0-54.724-5.609-86.152-16.899C313.529,543.591,238.87,493.428,172.72,427.28l-0.001-0.001    c-23.522-23.522-45.01-48.123-64.073-73.179c6.561-12.409,13.929-24.905,22.037-37.399c20.24,28.105,43.894,55.867,70.321,82.294    l0.001,0.001c62.064,62.065,131.482,108.903,195.462,131.888c31.887,11.455,60.458,16.061,83.743,13.928    c-0.126-1.589-0.21-3.19-0.21-4.811c0-4.928,0.61-9.715,1.736-14.301C488.168,499.499,511.845,480,540,480c33.084,0,60,26.916,60,60    S573.084,600,540,600z M520,540c0,11.028,8.971,20,20,20s20-8.972,20-20s-8.971-20-20-20S520,528.972,520,540z" data-darkreader-inline-fill="" fill="#ffffff" fill-opacity="1" style="--darkreader-inline-fill: #ae1710;"></path></g><path d="M149.76 198.63L144.96 198.63L144.96 214.82L150.65 214.82Q155.00 214.82 156.92 213.22L156.92 213.22Q159.48 211.11 159.48 206.31L159.48 206.31Q159.48 198.63 149.76 198.63L149.76 198.63ZM147.26 219.30L144.96 219.30L144.96 233.45Q144.96 234.73 145.34 235.24Q145.72 235.75 146.88 235.88L146.88 235.88L151.04 236.39L151.04 240.23L134.20 240.23L134.20 236.46L137.60 235.88Q138.75 235.69 139.10 235.21Q139.45 234.73 139.45 233.45L139.45 233.45L139.45 200.94Q139.45 199.66 139.10 199.18Q138.75 198.70 137.60 198.50L137.60 198.50L134.20 197.93L134.20 194.15L151.04 194.15Q158.14 194.15 161.92 196.78Q165.69 199.40 165.69 205.67L165.69 205.67Q165.69 212.78 159.93 216.04L159.93 216.04Q157.05 217.70 154.11 218.09L154.11 218.09Q156.03 218.54 158.27 222.06L158.27 222.06L165.31 233.06Q167.48 236.46 170.36 236.46L170.36 236.46Q171.26 236.46 172.60 236.01L172.60 236.01L172.28 239.53Q170.49 240.87 167.23 240.87L167.23 240.87Q163.26 240.87 159.74 235.50L159.74 235.50L151.16 221.86Q149.50 219.30 147.26 219.30L147.26 219.30ZM191.29 198.63L185.79 198.63L185.79 217.90L190.20 217.90Q195.39 217.90 197.24 216.39Q199.10 214.89 199.84 212.71Q200.57 210.54 200.57 206.70L200.57 206.70Q200.57 198.63 191.29 198.63L191.29 198.63ZM180.28 233.45L180.28 233.45L180.28 200.94Q180.28 199.66 179.93 199.18Q179.58 198.70 178.43 198.50L178.43 198.50L175.04 197.93L175.04 194.15L191.87 194.15Q199.16 194.15 202.97 196.74Q206.78 199.34 206.78 206.41Q206.78 213.48 201.85 217.93Q196.92 222.38 190.40 222.38L190.40 222.38L185.79 222.38L185.79 233.45Q185.79 234.73 186.17 235.24Q186.56 235.75 187.71 235.88L187.71 235.88L192.25 236.39L192.25 240.23L175.04 240.23L175.04 236.46L178.43 235.88Q179.58 235.69 179.93 235.21Q180.28 234.73 180.28 233.45ZM215.42 233.96L215.42 233.96L215.42 215.66Q215.42 214.25 215.16 213.77Q214.91 213.29 213.95 213.22L213.95 213.22L210.43 212.84L210.43 209.51L219.58 209.51L220.22 215.91Q221.18 213.42 223.96 211.14Q226.75 208.87 229.95 208.87Q233.15 208.87 235.26 210.09L235.26 210.09L234.75 218.15L231.04 218.15L230.33 214.06Q229.44 213.61 227.96 213.61L227.96 213.61Q225.21 213.61 223.13 215.98Q221.05 218.34 220.48 220.84L220.48 220.84L220.48 233.96Q220.48 235.37 220.73 235.85Q220.99 236.33 221.95 236.39L221.95 236.39L226.62 236.84L226.62 240.23L210.30 240.23L210.30 236.78L213.95 236.39Q214.91 236.33 215.16 235.85Q215.42 235.37 215.42 233.96ZM264.51 235.62L264.51 235.62Q262.72 237.99 259.55 239.43Q256.38 240.87 252.22 240.87L252.22 240.87Q245.12 240.87 241.79 236.58Q238.46 232.30 238.46 224.87L238.46 224.87Q238.46 218.86 242.04 214.12L242.04 214.12Q243.84 211.75 247.00 210.31Q250.17 208.87 254.33 208.87L254.33 208.87Q261.44 208.87 264.76 213.16Q268.09 217.45 268.09 224.17Q268.09 230.89 264.51 235.62ZM262.59 224.62Q262.59 219.24 260.03 216.17Q257.47 213.10 252.96 213.10Q248.44 213.10 246.88 214.66Q245.31 216.23 244.64 219.21Q243.96 222.18 243.96 225.13L243.96 225.13Q243.96 230.50 246.52 233.58Q249.08 236.65 253.60 236.65Q258.11 236.65 259.68 235.08Q261.24 233.51 261.92 230.54Q262.59 227.56 262.59 224.62L262.59 224.62ZM279.77 194.54Q281.98 194.54 282.65 195.46Q283.32 196.39 283.32 198.50Q283.32 200.62 282.43 201.35Q281.53 202.09 279.42 202.09Q277.31 202.09 276.54 201.26Q275.77 200.42 275.77 198.44Q275.77 196.46 276.67 195.50Q277.56 194.54 279.77 194.54ZM277.69 238.63L277.69 238.63L277.69 215.66Q277.69 214.25 277.44 213.77Q277.18 213.29 276.22 213.22L276.22 213.22L272.70 212.84L272.70 209.51L282.75 209.51L282.75 240.42Q282.75 245.22 282.01 247.66Q281.28 250.09 279.20 251.98Q277.12 253.86 272.32 256.23L272.32 256.23L269.18 253.67Q273.21 251.18 274.78 249.61Q276.35 248.04 277.02 245.67Q277.69 243.30 277.69 238.63ZM317.63 224.74L317.63 224.74L297.02 226.22Q297.34 236.65 306.43 236.65L306.43 236.65Q310.91 236.65 316.48 234.79L316.48 234.79L317.37 237.93Q315.52 238.89 312.83 239.59L312.83 239.59Q308.41 240.87 304.64 240.87L304.64 240.87Q297.92 240.87 294.68 236.68Q291.45 232.49 291.45 225.22Q291.45 217.96 295.23 213.42Q299.00 208.87 305.82 208.87Q312.64 208.87 315.13 212.81Q317.63 216.74 317.63 224.74ZM296.96 222.38L296.96 222.38L312.57 221.03Q312.57 217.45 311.10 215.27Q309.63 213.10 305.05 213.10Q300.48 213.10 299.04 214.82Q297.60 216.55 296.96 222.38ZM347.20 234.92L347.20 234.92L347.96 238.18Q347.84 238.25 346.97 238.57Q346.11 238.89 345.50 239.14Q344.89 239.40 343.71 239.75Q342.52 240.10 341.50 240.36L341.50 240.36Q339.00 240.87 336.44 240.87L336.44 240.87Q329.66 240.87 326.17 237.03Q322.68 233.19 322.68 225.74Q322.68 218.28 326.65 213.58Q330.62 208.87 337.28 208.87L337.28 208.87Q340.22 208.87 342.97 209.61Q345.72 210.34 347.13 211.24L347.13 211.24L346.68 219.11L342.97 219.11L342.08 214.31Q339.90 213.10 335.68 213.10L335.68 213.10Q334.14 213.10 332.54 213.67Q330.94 214.25 330.36 215.21L330.36 215.21Q328.19 218.28 328.19 225.45L328.19 225.45Q328.19 230.44 330.52 233.54Q332.86 236.65 337.15 236.65L337.15 236.65Q340.28 236.65 347.20 234.92ZM356.60 213.16L351.80 213.16L351.80 210.09L356.60 209.51L356.60 203.82L361.66 202.66L361.66 209.51L370.17 208.87L370.17 213.16L361.66 213.16L361.66 227.69Q361.66 232.81 362.78 234.82Q363.90 236.84 367.80 236.84L367.80 236.84Q369.47 236.84 372.35 236.39L372.35 236.39L371.77 239.66Q370.88 240.10 368.51 240.49Q366.14 240.87 364.12 240.87Q362.11 240.87 360.64 240.26Q359.16 239.66 358.36 238.79Q357.56 237.93 357.18 236.14L357.18 236.14Q356.60 233.77 356.60 228.65L356.60 228.65L356.60 213.16ZM376.38 216.87Q376.38 212.97 379.61 210.92Q382.84 208.87 387.32 208.87Q391.80 208.87 397.56 210.66L397.56 210.66L397.12 218.15L393.40 218.15L392.51 213.48Q389.95 212.52 387.20 212.52L387.20 212.52Q381.37 212.52 381.37 216.55L381.37 216.55Q381.37 218.54 383.16 219.69Q384.96 220.84 389.69 222.41Q394.43 223.98 396.70 225.90Q398.97 227.82 398.97 231.27L398.97 231.27Q398.97 235.69 395.48 238.28Q392.00 240.87 386.75 240.87Q381.50 240.87 375.93 238.63L375.93 238.63L376.38 230.89L380.22 230.89L380.80 235.56Q384.12 236.90 386.68 236.90L386.68 236.90Q393.79 236.90 393.79 232.23L393.79 232.23Q393.79 230.38 391.84 229.10Q389.88 227.82 385.24 226.38Q380.60 224.94 378.49 222.86Q376.38 220.78 376.38 216.87Z" data-element="company-name" data-text-path="" data-text="RProjects" data-font-family="Enriqueta" fill="#ffffff" fill-opacity="1"></path><path d="M128.01 285.64Q127.75 285.64 127.62 285.46Q127.49 285.27 127.49 285.01L127.49 285.01Q127.52 284.58 127.67 284.49Q127.81 284.41 128.21 284.41L128.21 284.41Q129.05 284.41 129.45 284.10Q129.85 283.80 129.96 283.35Q130.06 282.91 130.08 282.19L130.08 282.19L130.08 270.75Q130.06 270.03 129.96 269.59Q129.85 269.14 129.45 268.84Q129.05 268.54 128.21 268.54L128.21 268.54L128.04 268.54Q127.75 268.54 127.64 268.44Q127.52 268.34 127.49 267.93L127.49 267.93Q127.49 267.67 127.62 267.49Q127.75 267.30 128.01 267.30L128.01 267.30Q129.88 267.38 131.41 267.38L131.41 267.38L135.47 267.38Q137.05 267.38 138.03 267.62Q139.01 267.85 139.79 268.34L139.79 268.34Q140.54 268.82 140.97 269.67Q141.40 270.52 141.40 271.53L141.40 271.53Q141.40 273.32 140.24 274.37Q139.07 275.42 137.52 275.79L137.52 275.79L137.52 275.88Q139.01 275.88 140.24 276.47Q141.46 277.06 142.14 278.06Q142.81 279.05 142.81 280.20L142.81 280.20Q142.81 282.16 141.62 283.37Q140.42 284.58 138.62 285.08Q136.82 285.59 134.89 285.59L134.89 285.59L131.44 285.56Q129.88 285.56 128.01 285.64L128.01 285.64ZM132.94 275.30L134.15 275.30Q135.30 275.30 136.15 275.13Q137.00 274.96 137.66 274.21Q138.32 273.46 138.32 271.88L138.32 271.88Q138.32 268.45 134.95 268.45L134.95 268.45L132.94 268.45L132.94 275.30ZM135.01 284.43Q137.14 284.41 138.42 283.38Q139.70 282.36 139.70 280.03L139.70 280.03Q139.56 278.47 138.25 277.46Q136.94 276.46 134.12 276.46L134.12 276.46L132.94 276.46L132.94 282.19Q132.94 283.17 133.12 283.64Q133.31 284.12 133.73 284.28Q134.15 284.43 135.01 284.43L135.01 284.43ZM150.71 285.90Q148.75 285.90 147.60 284.72Q146.44 283.54 146.44 281.61L146.44 281.61L146.44 276.28Q146.44 275.54 146.40 275.19Q146.36 274.84 146.04 274.58Q145.72 274.33 144.97 274.33L144.97 274.33Q144.63 274.33 144.46 274.22Q144.28 274.12 144.28 273.75L144.28 273.75Q144.28 273.58 144.40 273.42Q144.51 273.26 144.74 273.23L144.74 273.23Q146.56 272.97 147.85 272.48L147.85 272.48Q148.26 272.34 148.52 272.31L148.52 272.31L148.60 272.31Q149.06 272.31 149.06 272.86L149.06 272.86L149.06 281.58Q149.06 282.91 149.90 283.61Q150.73 284.32 151.83 284.32L151.83 284.32Q153.18 284.32 154.13 283.66Q155.08 282.99 155.40 282.33L155.40 282.33L155.40 276.28Q155.40 275.54 155.36 275.19Q155.31 274.84 155.00 274.58Q154.68 274.33 153.93 274.33L153.93 274.33Q153.59 274.33 153.41 274.22Q153.24 274.12 153.24 273.75L153.24 273.75Q153.24 273.58 153.36 273.42Q153.47 273.26 153.70 273.23L153.70 273.23Q155.52 272.97 156.81 272.48L156.81 272.48Q157.21 272.34 157.47 272.31L157.47 272.31L157.56 272.31Q158.02 272.31 158.02 272.86L158.02 272.86L158.02 282.82Q158.02 284.52 160.30 284.52L160.30 284.52Q160.79 284.52 160.79 285.07L160.79 285.07Q160.79 285.47 160.30 285.56L160.30 285.56L155.66 285.87Q155.46 285.87 155.43 285.74Q155.40 285.62 155.40 285.30L155.40 285.30L155.40 283.69L155.34 283.69Q154.51 284.46 153.99 284.88Q153.47 285.30 152.65 285.60Q151.83 285.90 150.71 285.90L150.71 285.90ZM162.37 285.64Q162.17 285.64 162.04 285.47Q161.91 285.30 161.91 285.07L161.91 285.07Q161.94 284.69 162.08 284.62Q162.23 284.55 162.60 284.55L162.60 284.55Q163.35 284.55 163.67 284.29Q163.98 284.03 164.03 283.69Q164.07 283.34 164.07 282.59L164.07 282.59L164.07 276.00Q164.07 275.25 164.03 274.90Q163.98 274.56 163.67 274.30Q163.35 274.04 162.60 274.04L162.60 274.04Q162.25 274.04 162.08 273.94Q161.91 273.84 161.91 273.46L161.91 273.46Q161.91 273.29 162.02 273.13Q162.14 272.97 162.37 272.94L162.37 272.94Q164.18 272.68 165.48 272.19L165.48 272.19Q165.88 272.05 166.14 272.02L166.14 272.02L166.23 272.02Q166.69 272.02 166.69 272.57L166.69 272.57L166.69 282.59Q166.69 283.34 166.75 283.69Q166.80 284.03 167.12 284.29Q167.44 284.55 168.19 284.55L168.19 284.55L168.36 284.55Q168.59 284.55 168.71 284.64Q168.82 284.72 168.85 285.07L168.85 285.07Q168.85 285.30 168.73 285.47Q168.62 285.64 168.39 285.64L168.39 285.64Q166.72 285.56 165.36 285.56L165.36 285.56Q164.07 285.56 162.37 285.64L162.37 285.64ZM165.22 268.82Q164.41 268.82 163.87 268.32Q163.32 267.82 163.32 267.07L163.32 267.07Q163.32 266.41 163.98 265.89Q164.64 265.37 165.48 265.37L165.48 265.37Q166.20 265.37 166.66 265.87Q167.12 266.38 167.12 267.15L167.12 267.15Q167.12 267.85 166.57 268.34Q166.03 268.82 165.22 268.82L165.22 268.82ZM170.61 285.64Q170.40 285.64 170.28 285.47Q170.15 285.30 170.15 285.07L170.15 285.07Q170.17 284.69 170.30 284.62Q170.43 284.55 170.81 284.55L170.81 284.55Q171.56 284.55 171.87 284.29Q172.19 284.03 172.25 283.69Q172.31 283.34 172.31 282.59L172.31 282.59L172.31 268.54Q172.31 267.79 172.26 267.44Q172.22 267.10 171.90 266.84Q171.59 266.58 170.84 266.58L170.84 266.58Q170.49 266.58 170.32 266.48Q170.15 266.38 170.15 266.00L170.15 266.00Q170.15 265.83 170.26 265.67Q170.38 265.51 170.61 265.48L170.61 265.48Q172.42 265.22 173.72 264.74L173.72 264.74Q174.12 264.59 174.38 264.56L174.38 264.56L174.47 264.56Q174.93 264.56 174.93 265.11L174.93 265.11L174.93 282.59Q174.93 283.34 174.98 283.69Q175.04 284.03 175.36 284.29Q175.68 284.55 176.42 284.55L176.42 284.55L176.60 284.55Q176.83 284.55 176.94 284.64Q177.06 284.72 177.09 285.07L177.09 285.07Q177.09 285.30 176.97 285.47Q176.86 285.64 176.63 285.64L176.63 285.64Q174.96 285.56 173.60 285.56L173.60 285.56Q172.31 285.56 170.61 285.64L170.61 285.64ZM184.75 285.90Q183.13 285.90 181.75 285.02Q180.37 284.15 179.53 282.58Q178.70 281.01 178.70 279.02L178.70 279.02Q178.70 277.23 179.56 275.65Q180.43 274.07 181.95 273.12Q183.48 272.17 185.35 272.17L185.35 272.17Q186.24 272.17 187.14 272.38Q188.03 272.60 188.69 272.97L188.69 272.97L188.78 272.97L188.78 268.57Q188.78 267.82 188.74 267.47Q188.69 267.13 188.38 266.87Q188.06 266.61 187.31 266.61L187.31 266.61Q186.96 266.61 186.79 266.51Q186.62 266.41 186.62 266.03L186.62 266.03Q186.62 265.86 186.73 265.70Q186.85 265.54 187.08 265.51L187.08 265.51Q188.89 265.25 190.19 264.76L190.19 264.76Q190.59 264.62 190.85 264.59L190.85 264.59L190.94 264.59Q191.40 264.59 191.40 265.14L191.40 265.14L191.40 282.91Q191.40 284.61 193.65 284.61L193.65 284.61Q194.14 284.61 194.14 285.07L194.14 285.07Q194.14 285.47 193.65 285.56L193.65 285.56L189.07 285.87Q188.87 285.87 188.84 285.74Q188.81 285.62 188.81 285.30L188.81 285.30L188.81 284.15L188.72 284.15Q187.97 284.92 186.89 285.41Q185.81 285.90 184.75 285.90L184.75 285.90ZM185.73 284.46Q186.73 284.46 187.44 284.07Q188.15 283.69 188.78 283.02L188.78 283.02L188.78 275.42Q188.52 274.58 187.70 273.89Q186.88 273.20 185.64 273.20L185.64 273.20Q184.52 273.20 183.61 273.91Q182.70 274.61 182.18 275.97Q181.67 277.32 181.67 279.16L181.67 279.16Q181.67 281.38 182.72 282.92Q183.77 284.46 185.73 284.46L185.73 284.46ZM206.87 286.05Q205.45 286.05 204.45 285.01Q203.44 283.97 203.44 282.04L203.44 282.04L203.44 273.58L201.77 273.63Q201.60 273.63 201.48 273.48Q201.36 273.32 201.36 273.12L201.36 273.12Q201.36 272.86 201.47 272.67Q201.57 272.48 201.77 272.45L201.77 272.45Q202.78 272.25 203.34 271.81Q203.90 271.36 204.16 270.83Q204.42 270.29 204.79 269.20L204.79 269.20Q204.94 268.82 205.43 268.82L205.43 268.82Q205.63 268.82 205.83 268.93Q206.03 269.03 206.03 269.23L206.03 269.23L205.83 272.51L209.20 272.31L209.26 272.31Q209.63 272.31 209.63 272.86L209.63 272.86Q209.63 273.17 209.53 273.45Q209.43 273.72 209.28 273.72L209.28 273.72L206.06 273.63L206.06 282.39Q206.06 283.34 206.45 283.97Q206.84 284.61 207.73 284.61L207.73 284.61Q208.62 284.61 209.31 284.29L209.31 284.29Q209.69 284.15 209.77 284.15L209.77 284.15Q209.98 284.15 210.09 284.30Q210.21 284.46 210.32 284.72L210.32 284.72Q210.35 284.78 210.35 284.87L210.35 284.87Q210.35 284.98 210.18 285.13L210.18 285.13Q209.34 285.67 208.61 285.86Q207.87 286.05 206.87 286.05L206.87 286.05ZM212.68 285.64Q212.45 285.64 212.34 285.47Q212.22 285.30 212.22 285.07L212.22 285.07Q212.25 284.69 212.38 284.62Q212.51 284.55 212.88 284.55L212.88 284.55Q213.63 284.55 213.95 284.29Q214.27 284.03 214.32 283.69Q214.38 283.34 214.38 282.59L214.38 282.59L214.38 268.54Q214.38 267.79 214.34 267.44Q214.30 267.10 213.98 266.84Q213.66 266.58 212.91 266.58L212.91 266.58Q212.57 266.58 212.40 266.48Q212.22 266.38 212.22 266.00L212.22 266.00Q212.22 265.83 212.34 265.67Q212.45 265.51 212.68 265.48L212.68 265.48Q214.12 265.28 214.86 265.04Q215.59 264.79 215.71 264.76L215.71 264.76Q216.25 264.56 216.46 264.56L216.46 264.56Q217.00 264.56 217.00 265.11L217.00 265.11L217.00 274.38L217.06 274.38Q217.90 273.61 218.41 273.19Q218.93 272.77 219.75 272.47Q220.57 272.17 221.70 272.17L221.70 272.17Q223.66 272.17 224.81 273.35Q225.96 274.53 225.96 276.46L225.96 276.46L225.96 282.59Q225.96 283.34 226.00 283.69Q226.05 284.03 226.36 284.29Q226.68 284.55 227.43 284.55L227.43 284.55L227.60 284.55Q227.86 284.55 227.96 284.64Q228.06 284.72 228.09 285.07L228.09 285.07Q228.09 285.30 227.98 285.47Q227.86 285.64 227.66 285.64L227.66 285.64Q225.96 285.56 224.64 285.56L224.64 285.56Q223.28 285.56 221.64 285.64L221.64 285.64Q221.41 285.64 221.29 285.47Q221.18 285.30 221.18 285.07L221.18 285.07Q221.21 284.69 221.34 284.62Q221.47 284.55 221.84 284.55L221.84 284.55Q222.59 284.55 222.91 284.29Q223.22 284.03 223.27 283.70Q223.31 283.37 223.31 282.59L223.31 282.59L223.31 276.49Q223.31 275.16 222.49 274.46Q221.67 273.75 220.57 273.75L220.57 273.75Q219.25 273.75 218.28 274.41Q217.32 275.07 217.00 275.74L217.00 275.74L217.00 282.59Q217.00 283.34 217.05 283.69Q217.09 284.03 217.41 284.29Q217.72 284.55 218.47 284.55L218.47 284.55L218.64 284.55Q218.90 284.55 219.00 284.64Q219.11 284.72 219.13 285.07L219.13 285.07Q219.13 285.30 219.02 285.47Q218.90 285.64 218.70 285.64L218.70 285.64Q217.03 285.56 215.68 285.56L215.68 285.56Q214.38 285.56 212.68 285.64L212.68 285.64ZM236.33 285.90Q234.17 285.90 232.66 284.98Q231.14 284.06 230.37 282.48Q229.59 280.89 229.59 278.96L229.59 278.96Q229.59 277.26 230.38 275.69Q231.17 274.12 232.64 273.14Q234.11 272.17 236.01 272.17L236.01 272.17Q238.57 272.17 239.96 273.48Q241.34 274.79 241.54 277.00L241.54 277.00Q241.54 277.95 241.02 278.30Q240.50 278.65 239.52 278.65L239.52 278.65L232.53 278.65Q232.53 281.32 233.64 282.89Q234.74 284.46 237.08 284.46L237.08 284.46Q238.32 284.46 239.18 283.93Q240.04 283.40 240.82 282.13L240.82 282.13Q240.96 281.99 241.11 281.99L241.11 281.99Q241.31 281.99 241.45 282.10L241.45 282.10Q241.74 282.27 241.74 282.62L241.74 282.62Q241.74 282.79 241.68 282.88L241.68 282.88Q240.79 284.32 239.42 285.11Q238.06 285.90 236.33 285.90L236.33 285.90ZM232.53 277.55L237.22 277.55Q238.69 277.55 238.78 276.34L238.78 276.34Q238.78 275.02 238.06 274.10Q237.34 273.17 236.01 273.17L236.01 273.17Q234.54 273.17 233.59 274.34Q232.64 275.51 232.53 277.55L232.53 277.55ZM252.08 285.96Q251.82 285.96 251.68 285.80Q251.53 285.64 251.53 285.38L251.53 285.38L251.53 268.57Q251.53 267.82 251.49 267.47Q251.45 267.13 251.13 266.87Q250.81 266.61 250.07 266.61L250.07 266.61Q249.72 266.61 249.55 266.51Q249.37 266.41 249.37 266.03L249.37 266.03Q249.37 265.86 249.49 265.70Q249.60 265.54 249.84 265.51L249.84 265.51Q251.65 265.25 252.95 264.76L252.95 264.76Q253.35 264.62 253.61 264.59L253.61 264.59L253.69 264.59Q254.16 264.59 254.16 265.14L254.16 265.14L254.16 273.84L254.24 273.84Q255.08 273.00 256.13 272.58Q257.18 272.17 258.22 272.17L258.22 272.17Q259.92 272.17 261.30 273.03Q262.68 273.89 263.47 275.43Q264.26 276.98 264.26 278.93L264.26 278.93Q264.26 280.86 263.36 282.46Q262.45 284.06 260.92 284.98Q259.40 285.90 257.67 285.90L257.67 285.90Q255.11 285.90 253.23 284.49L253.23 284.49L253.09 284.49Q252.97 284.72 252.83 285.13Q252.69 285.53 252.51 285.74Q252.34 285.96 252.08 285.96L252.08 285.96ZM257.41 284.92Q259.17 284.92 260.25 283.33Q261.33 281.73 261.33 279.05L261.33 279.05Q261.33 276.80 260.29 275.20Q259.25 273.61 257.21 273.61L257.21 273.61Q255.39 273.61 254.16 274.93L254.16 274.93L254.16 282.53Q254.24 282.99 254.66 283.56Q255.08 284.12 255.78 284.52Q256.49 284.92 257.41 284.92L257.41 284.92ZM273.36 285.90Q271.20 285.90 269.69 284.98Q268.18 284.06 267.40 282.48Q266.63 280.89 266.63 278.96L266.63 278.96Q266.63 277.26 267.42 275.69Q268.21 274.12 269.68 273.14Q271.15 272.17 273.05 272.17L273.05 272.17Q275.61 272.17 276.99 273.48Q278.38 274.79 278.58 277.00L278.58 277.00Q278.58 277.95 278.06 278.30Q277.54 278.65 276.56 278.65L276.56 278.65L269.56 278.65Q269.56 281.32 270.67 282.89Q271.78 284.46 274.11 284.46L274.11 284.46Q275.35 284.46 276.22 283.93Q277.08 283.40 277.86 282.13L277.86 282.13Q278.00 281.99 278.15 281.99L278.15 281.99Q278.35 281.99 278.49 282.10L278.49 282.10Q278.78 282.27 278.78 282.62L278.78 282.62Q278.78 282.79 278.72 282.88L278.72 282.88Q277.83 284.32 276.46 285.11Q275.09 285.90 273.36 285.90L273.36 285.90ZM269.56 277.55L274.26 277.55Q275.73 277.55 275.81 276.34L275.81 276.34Q275.81 275.02 275.09 274.10Q274.37 273.17 273.05 273.17L273.05 273.17Q271.58 273.17 270.63 274.34Q269.68 275.51 269.56 277.55L269.56 277.55ZM286.18 285.90Q283.88 285.90 282.44 285.10Q281.00 284.29 281.00 282.82L281.00 282.82Q281.00 281.99 281.50 281.47Q282.00 280.95 282.81 280.95L282.81 280.95Q283.27 280.95 283.63 281.21Q283.99 281.47 283.99 281.61L283.99 281.61Q283.99 281.64 283.66 281.99Q283.33 282.33 283.33 282.97L283.33 282.97Q283.33 283.83 284.12 284.33Q284.91 284.84 286.41 284.84L286.41 284.84Q287.76 284.84 288.53 284.25Q289.29 283.66 289.29 282.59L289.29 282.59Q289.29 281.87 288.86 281.41Q288.43 280.95 287.78 280.69Q287.13 280.43 285.98 280.09L285.98 280.09Q284.57 279.68 283.68 279.28Q282.78 278.88 282.15 278.07Q281.52 277.26 281.52 275.97L281.52 275.97Q281.52 274.76 282.26 273.89Q283.01 273.03 284.21 272.60Q285.40 272.17 286.73 272.17L286.73 272.17Q288.43 272.17 289.68 272.89Q290.93 273.61 290.93 274.90L290.93 274.90Q290.93 275.68 290.46 276.23Q289.98 276.77 289.20 276.77L289.20 276.77Q288.74 276.77 288.38 276.51Q288.02 276.26 288.02 276.11L288.02 276.11Q288.02 276.08 288.25 275.88Q288.48 275.68 288.67 275.41Q288.86 275.13 288.86 274.76L288.86 274.76Q288.80 273.98 288.08 273.55Q287.36 273.12 286.38 273.12L286.38 273.12Q285.29 273.12 284.47 273.62Q283.65 274.12 283.65 275.02L283.65 275.02Q283.65 275.82 283.99 276.30Q284.34 276.77 285.03 277.06Q285.72 277.35 287.22 277.84L287.22 277.84Q288.74 278.33 289.61 278.75Q290.47 279.16 290.98 279.87Q291.48 280.58 291.48 281.73L291.48 281.73Q291.48 282.91 290.79 283.87Q290.10 284.84 288.89 285.37Q287.68 285.90 286.18 285.90L286.18 285.90ZM298.88 286.05Q297.47 286.05 296.46 285.01Q295.45 283.97 295.45 282.04L295.45 282.04L295.45 273.58L293.78 273.63Q293.61 273.63 293.50 273.48Q293.38 273.32 293.38 273.12L293.38 273.12Q293.38 272.86 293.48 272.67Q293.58 272.48 293.78 272.45L293.78 272.45Q294.79 272.25 295.35 271.81Q295.92 271.36 296.17 270.83Q296.43 270.29 296.81 269.20L296.81 269.20Q296.95 268.82 297.44 268.82L297.44 268.82Q297.64 268.82 297.84 268.93Q298.05 269.03 298.05 269.23L298.05 269.23L297.84 272.51L301.21 272.31L301.27 272.31Q301.65 272.31 301.65 272.86L301.65 272.86Q301.65 273.17 301.55 273.45Q301.44 273.72 301.30 273.72L301.30 273.72L298.08 273.63L298.08 282.39Q298.08 283.34 298.46 283.97Q298.85 284.61 299.75 284.61L299.75 284.61Q300.64 284.61 301.33 284.29L301.33 284.29Q301.70 284.15 301.79 284.15L301.79 284.15Q301.99 284.15 302.11 284.30Q302.22 284.46 302.34 284.72L302.34 284.72Q302.37 284.78 302.37 284.87L302.37 284.87Q302.37 284.98 302.19 285.13L302.19 285.13Q301.36 285.67 300.62 285.86Q299.89 286.05 298.88 286.05L298.88 286.05ZM316.77 285.85L313.08 275.62Q312.59 274.50 312.16 274.08Q311.73 273.66 310.89 273.55L310.89 273.55Q310.80 273.52 310.57 273.49Q310.34 273.46 310.29 273.35Q310.23 273.23 310.23 272.94L310.23 272.94Q310.23 272.60 310.42 272.51Q310.60 272.42 310.88 272.41Q311.15 272.40 311.24 272.40L311.24 272.40Q312.99 272.31 314.00 272.90Q315.01 273.49 315.67 274.96L315.67 274.96L318.32 282.42L318.41 282.42Q319.30 279.65 321.20 272.51L321.20 272.51L322.58 272.51L326.53 282.42L326.62 282.42Q327.11 280.92 327.57 279.01Q328.03 277.09 328.11 276.80L328.11 276.80L328.63 274.76Q328.72 274.41 328.72 274.18L328.72 274.18Q328.72 273.78 328.46 273.65Q328.20 273.52 327.54 273.52L327.54 273.52L327.36 273.52Q327.13 273.52 327.03 273.43Q326.93 273.35 326.90 273.00L326.90 273.00Q326.90 272.80 327.00 272.61Q327.11 272.42 327.31 272.42L327.31 272.42Q328.95 272.51 330.13 272.51L330.13 272.51Q330.85 272.51 332.55 272.42L332.55 272.42Q332.75 272.42 332.87 272.61Q332.98 272.80 332.98 273.00L332.98 273.00Q332.95 273.35 332.84 273.43Q332.72 273.52 332.49 273.52L332.49 273.52Q331.31 273.52 330.72 273.88Q330.13 274.24 329.87 275.22L329.87 275.22L326.67 285.85L324.97 285.85L321.32 276.43L318.47 285.85L316.77 285.85ZM334.39 285.64Q334.19 285.64 334.06 285.47Q333.93 285.30 333.93 285.07L333.93 285.07Q333.96 284.69 334.10 284.62Q334.25 284.55 334.62 284.55L334.62 284.55Q335.37 284.55 335.69 284.29Q336.00 284.03 336.05 283.69Q336.09 283.34 336.09 282.59L336.09 282.59L336.09 276.00Q336.09 275.25 336.05 274.90Q336.00 274.56 335.69 274.30Q335.37 274.04 334.62 274.04L334.62 274.04Q334.28 274.04 334.10 273.94Q333.93 273.84 333.93 273.46L333.93 273.46Q333.93 273.29 334.05 273.13Q334.16 272.97 334.39 272.94L334.39 272.94Q336.21 272.68 337.50 272.19L337.50 272.19Q337.91 272.05 338.16 272.02L338.16 272.02L338.25 272.02Q338.71 272.02 338.71 272.57L338.71 272.57L338.71 282.59Q338.71 283.34 338.77 283.69Q338.83 284.03 339.14 284.29Q339.46 284.55 340.21 284.55L340.21 284.55L340.38 284.55Q340.61 284.55 340.73 284.64Q340.84 284.72 340.87 285.07L340.87 285.07Q340.87 285.30 340.76 285.47Q340.64 285.64 340.41 285.64L340.41 285.64Q338.74 285.56 337.39 285.56L337.39 285.56Q336.09 285.56 334.39 285.64L334.39 285.64ZM337.24 268.82Q336.44 268.82 335.89 268.32Q335.34 267.82 335.34 267.07L335.34 267.07Q335.34 266.41 336.00 265.89Q336.67 265.37 337.50 265.37L337.50 265.37Q338.22 265.37 338.68 265.87Q339.14 266.38 339.14 267.15L339.14 267.15Q339.14 267.85 338.60 268.34Q338.05 268.82 337.24 268.82L337.24 268.82ZM347.61 286.05Q346.20 286.05 345.19 285.01Q344.18 283.97 344.18 282.04L344.18 282.04L344.18 273.58L342.51 273.63Q342.34 273.63 342.23 273.48Q342.11 273.32 342.11 273.12L342.11 273.12Q342.11 272.86 342.21 272.67Q342.31 272.48 342.51 272.45L342.51 272.45Q343.52 272.25 344.08 271.81Q344.64 271.36 344.90 270.83Q345.16 270.29 345.54 269.20L345.54 269.20Q345.68 268.82 346.17 268.82L346.17 268.82Q346.37 268.82 346.57 268.93Q346.78 269.03 346.78 269.23L346.78 269.23L346.57 272.51L349.94 272.31L350.00 272.31Q350.38 272.31 350.38 272.86L350.38 272.86Q350.38 273.17 350.28 273.45Q350.17 273.72 350.03 273.72L350.03 273.72L346.80 273.63L346.80 282.39Q346.80 283.34 347.19 283.97Q347.58 284.61 348.48 284.61L348.48 284.61Q349.37 284.61 350.06 284.29L350.06 284.29Q350.43 284.15 350.52 284.15L350.52 284.15Q350.72 284.15 350.84 284.30Q350.95 284.46 351.07 284.72L351.07 284.72Q351.10 284.78 351.10 284.87L351.10 284.87Q351.10 284.98 350.92 285.13L350.92 285.13Q350.09 285.67 349.35 285.86Q348.62 286.05 347.61 286.05L347.61 286.05ZM353.43 285.64Q353.20 285.64 353.08 285.47Q352.97 285.30 352.97 285.07L352.97 285.07Q353.00 284.69 353.13 284.62Q353.26 284.55 353.63 284.55L353.63 284.55Q354.38 284.55 354.70 284.29Q355.01 284.03 355.07 283.69Q355.13 283.34 355.13 282.59L355.13 282.59L355.13 268.54Q355.13 267.79 355.08 267.44Q355.04 267.10 354.72 266.84Q354.41 266.58 353.66 266.58L353.66 266.58Q353.31 266.58 353.14 266.48Q352.97 266.38 352.97 266.00L352.97 266.00Q352.97 265.83 353.08 265.67Q353.20 265.51 353.43 265.48L353.43 265.48Q354.87 265.28 355.60 265.04Q356.34 264.79 356.45 264.76L356.45 264.76Q357.00 264.56 357.20 264.56L357.20 264.56Q357.75 264.56 357.75 265.11L357.75 265.11L357.75 274.38L357.81 274.38Q358.64 273.61 359.16 273.19Q359.68 272.77 360.50 272.47Q361.32 272.17 362.44 272.17L362.44 272.17Q364.40 272.17 365.55 273.35Q366.71 274.53 366.71 276.46L366.71 276.46L366.71 282.59Q366.71 283.34 366.75 283.69Q366.79 284.03 367.11 284.29Q367.43 284.55 368.17 284.55L368.17 284.55L368.35 284.55Q368.61 284.55 368.71 284.64Q368.81 284.72 368.84 285.07L368.84 285.07Q368.84 285.30 368.72 285.47Q368.61 285.64 368.40 285.64L368.40 285.64Q366.71 285.56 365.38 285.56L365.38 285.56Q364.03 285.56 362.39 285.64L362.39 285.64Q362.16 285.64 362.04 285.47Q361.92 285.30 361.92 285.07L361.92 285.07Q361.95 284.69 362.08 284.62Q362.21 284.55 362.59 284.55L362.59 284.55Q363.34 284.55 363.65 284.29Q363.97 284.03 364.01 283.70Q364.06 283.37 364.06 282.59L364.06 282.59L364.06 276.49Q364.06 275.16 363.24 274.46Q362.41 273.75 361.32 273.75L361.32 273.75Q360.00 273.75 359.03 274.41Q358.07 275.07 357.75 275.74L357.75 275.74L357.75 282.59Q357.75 283.34 357.79 283.69Q357.84 284.03 358.15 284.29Q358.47 284.55 359.22 284.55L359.22 284.55L359.39 284.55Q359.65 284.55 359.75 284.64Q359.85 284.72 359.88 285.07L359.88 285.07Q359.88 285.30 359.76 285.47Q359.65 285.64 359.45 285.64L359.45 285.64Q357.78 285.56 356.42 285.56L356.42 285.56Q355.13 285.56 353.43 285.64L353.43 285.64ZM382.60 285.90Q380.64 285.90 379.49 284.72Q378.34 283.54 378.34 281.61L378.34 281.61L378.34 276.28Q378.34 275.54 378.30 275.19Q378.25 274.84 377.94 274.58Q377.62 274.33 376.87 274.33L376.87 274.33Q376.53 274.33 376.35 274.22Q376.18 274.12 376.18 273.75L376.18 273.75Q376.18 273.58 376.30 273.42Q376.41 273.26 376.64 273.23L376.64 273.23Q378.46 272.97 379.75 272.48L379.75 272.48Q380.16 272.34 380.41 272.31L380.41 272.31L380.50 272.31Q380.96 272.31 380.96 272.86L380.96 272.86L380.96 281.58Q380.96 282.91 381.80 283.61Q382.63 284.32 383.73 284.32L383.73 284.32Q385.08 284.32 386.03 283.66Q386.98 282.99 387.30 282.33L387.30 282.33L387.30 276.28Q387.30 275.54 387.25 275.19Q387.21 274.84 386.89 274.58Q386.58 274.33 385.83 274.33L385.83 274.33Q385.48 274.33 385.31 274.22Q385.14 274.12 385.14 273.75L385.14 273.75Q385.14 273.58 385.25 273.42Q385.37 273.26 385.60 273.23L385.60 273.23Q387.41 272.97 388.71 272.48L388.71 272.48Q389.11 272.34 389.37 272.31L389.37 272.31L389.46 272.31Q389.92 272.31 389.92 272.86L389.92 272.86L389.92 282.82Q389.92 284.52 392.19 284.52L392.19 284.52Q392.68 284.52 392.68 285.07L392.68 285.07Q392.68 285.47 392.19 285.56L392.19 285.56L387.56 285.87Q387.36 285.87 387.33 285.74Q387.30 285.62 387.30 285.30L387.30 285.30L387.30 283.69L387.24 283.69Q386.40 284.46 385.89 284.88Q385.37 285.30 384.55 285.60Q383.73 285.90 382.60 285.90L382.60 285.90ZM399.13 285.90Q396.83 285.90 395.39 285.10Q393.95 284.29 393.95 282.82L393.95 282.82Q393.95 281.99 394.45 281.47Q394.96 280.95 395.76 280.95L395.76 280.95Q396.23 280.95 396.59 281.21Q396.95 281.47 396.95 281.61L396.95 281.61Q396.95 281.64 396.61 281.99Q396.28 282.33 396.28 282.97L396.28 282.97Q396.28 283.83 397.08 284.33Q397.87 284.84 399.36 284.84L399.36 284.84Q400.72 284.84 401.48 284.25Q402.24 283.66 402.24 282.59L402.24 282.59Q402.24 281.87 401.81 281.41Q401.38 280.95 400.73 280.69Q400.08 280.43 398.93 280.09L398.93 280.09Q397.52 279.68 396.63 279.28Q395.74 278.88 395.10 278.07Q394.47 277.26 394.47 275.97L394.47 275.97Q394.47 274.76 395.22 273.89Q395.97 273.03 397.16 272.60Q398.36 272.17 399.68 272.17L399.68 272.17Q401.38 272.17 402.63 272.89Q403.89 273.61 403.89 274.90L403.89 274.90Q403.89 275.68 403.41 276.23Q402.94 276.77 402.16 276.77L402.16 276.77Q401.70 276.77 401.34 276.51Q400.98 276.26 400.98 276.11L400.98 276.11Q400.98 276.08 401.21 275.88Q401.44 275.68 401.63 275.41Q401.81 275.13 401.81 274.76L401.81 274.76Q401.76 273.98 401.04 273.55Q400.32 273.12 399.34 273.12L399.34 273.12Q398.24 273.12 397.42 273.62Q396.60 274.12 396.60 275.02L396.60 275.02Q396.60 275.82 396.95 276.30Q397.29 276.77 397.98 277.06Q398.67 277.35 400.17 277.84L400.17 277.84Q401.70 278.33 402.56 278.75Q403.43 279.16 403.93 279.87Q404.43 280.58 404.43 281.73L404.43 281.73Q404.43 282.91 403.74 283.87Q403.05 284.84 401.84 285.37Q400.63 285.90 399.13 285.90L399.13 285.90Z" data-element="slogan" data-text-path="" data-text="Build the best with us" data-font-family="Alice" fill="#ffffff" fill-opacity="1"></path></g></g></svg>